<?xml version="1.0" standalone="no"?>
<!DOCTYPE svg PUBLIC "-//W3C//DTD SVG 20010904//EN"
 "http://www.w3.org/TR/2001/REC-SVG-20010904/DTD/svg10.dtd">
<svg version="1.0" xmlns="http://www.w3.org/2000/svg"
 width="1024.000000pt" height="1024.000000pt" viewBox="0 0 1024.000000 1024.000000"
 preserveAspectRatio="xMidYMid meet">
<metadata>
Created by potrace 1.11, written by Peter Selinger 2001-2013
</metadata>
<g transform="translate(0.000000,1024.000000) scale(0.100000,-0.100000)"
fill="#000000" stroke="none">
<path d="M5018 10119 c-1419 -81 -2887 -1098 -3815 -2644 -637 -1061 -954
-2240 -902 -3357 27 -582 179 -1173 416 -1625 24 -45 43 -89 43 -97 0 -9 4
-16 9 -16 5 0 11 -8 14 -17 8 -23 55 -104 73 -124 8 -8 14 -21 14 -27 0 -7 4
-12 8 -12 4 0 16 -15 27 -32 10 -18 29 -46 42 -63 13 -16 27 -34 31 -40 23
-31 78 -102 87 -111 5 -6 37 -42 70 -79 138 -156 296 -298 445 -400 30 -20 57
-40 60 -43 18 -25 271 -153 525 -267 77 -35 248 -116 380 -180 132 -64 380
-185 550 -267 171 -83 413 -202 539 -265 366 -183 454 -220 652 -273 90 -24
248 -60 294 -66 196 -26 247 -29 450 -29 189 0 362 9 392 20 7 3 80 16 162 30
1226 206 2454 1090 3299 2375 401 610 698 1279 872 1963 121 476 175 899 175
1367 0 412 -39 745 -131 1115 -28 114 -128 424 -164 510 -35 82 -127 277 -135
285 -3 3 -12 19 -20 35 -8 17 -27 49 -42 72 -15 23 -28 45 -28 49 0 4 -11 22
-25 40 -14 18 -25 37 -25 43 0 6 -4 11 -10 11 -5 0 -10 5 -10 10 0 12 -80 123
-92 128 -4 2 -8 10 -8 17 0 8 -6 18 -13 22 -7 4 -20 18 -29 31 -75 110 -307
338 -483 474 -147 115 -306 206 -560 323 -88 40 -250 117 -360 170 -110 54
-245 119 -300 145 -55 26 -212 103 -350 170 -137 67 -281 137 -320 155 -38 18
-173 84 -300 147 -376 187 -600 258 -980 313 -123 17 -358 24 -527 14z m422
-844 c557 -70 1024 -362 1332 -835 739 -1131 549 -3016 -460 -4560 -559 -856
-1332 -1525 -2127 -1840 -510 -203 -974 -259 -1434 -174 -102 19 -293 81 -397
129 -682 315 -1120 1045 -1208 2015 -114 1252 383 2687 1312 3790 141 167 456
480 617 613 611 506 1287 812 1920 870 92 9 347 4 445 -8z m2481 -1085 c481
-241 835 -684 1020 -1279 16 -52 29 -96 29 -97 0 -3 -32 11 -135 56 -36 16
-310 134 -670 289 l-130 56 -7 75 c-23 241 -103 604 -188 854 -16 50 -30 91
-30 93 0 7 16 0 111 -47z m434 -1500 c154 -67 294 -127 310 -134 17 -8 111
-49 210 -91 99 -42 181 -78 183 -80 4 -4 31 -286 35 -373 3 -72 1 -83 -12 -79
-19 6 -834 357 -906 391 -27 13 -67 29 -89 37 l-39 14 6 130 c4 71 7 169 7
218 0 48 3 87 8 87 4 0 133 -54 287 -120z m-110 -784 c66 -29 392 -171 610
-264 l230 -99 -3 -49 c-4 -71 -31 -301 -38 -330 -7 -28 -14 -27 -99 11 -27 13
-144 64 -260 113 -527 226 -731 315 -738 322 -5 4 3 70 17 146 13 77 28 162
32 189 3 28 8 53 10 57 3 5 64 -19 239 -96z m-225 -719 c195 -83 645 -277 665
-287 11 -5 78 -35 150 -65 71 -31 131 -57 132 -59 1 -1 -9 -47 -23 -102 -197
-782 -608 -1582 -1140 -2219 -449 -538 -957 -946 -1514 -1218 -145 -71 -145
-71 -225 -69 -335 6 -718 113 -1004 281 l-74 43 29 18 c16 9 70 41 119 70 221
131 492 325 710 510 918 779 1617 1866 1980 3082 l26 88 32 -14 c18 -8 79 -34
137 -59z"/>
<path d="M5225 7933 c-173 -18 -309 -53 -546 -138 -418 -150 -755 -360 -1050
-655 -160 -160 -275 -300 -411 -505 -221 -331 -329 -635 -300 -839 26 -175
114 -288 293 -374 151 -73 387 -169 604 -247 233 -83 319 -124 391 -188 123
-110 140 -234 65 -454 -108 -315 -370 -534 -723 -607 -98 -20 -141 -20 -209 1
-121 38 -318 15 -474 -56 -214 -97 -377 -282 -379 -429 -3 -190 211 -250 613
-173 192 37 543 136 686 193 457 181 828 511 1085 965 72 126 95 179 143 328
40 124 67 273 67 368 0 176 -98 344 -272 464 -153 106 -493 257 -738 328 -197
58 -274 104 -325 197 -53 95 -37 224 51 399 51 102 184 295 262 381 160 175
282 268 477 363 230 113 432 127 480 34 9 -15 19 -68 24 -117 15 -138 60 -212
140 -228 72 -15 309 85 414 174 152 129 247 305 247 456 0 153 -131 290 -327
341 -55 15 -222 25 -288 18z"/>
</g>
</svg>
